Coordinates
version=1
nRows=14
nColumns=40
inDegrees=yes

Units are S.I. units (second, meters, Newtons, ...)
If the header above contains a line with 'inDegrees', this indicates whether rotational values are in degrees (yes) or radians (no).

endheader
time	pelvis_tilt	pelvis_list	pelvis_rotation	pelvis_tx	pelvis_ty	pelvis_tz	hip_flexion_r	hip_adduction_r	hip_rotation_r	knee_angle_r	knee_angle_r_beta	ankle_angle_r	subtalar_angle_r	mtp_angle_r	hip_flexion_l	hip_adduction_l	hip_rotation_l	knee_angle_l	knee_angle_l_beta	ankle_angle_l	subtalar_angle_l	mtp_angle_l	lumbar_extension	lumbar_bending	lumbar_rotation	arm_flex_r	arm_add_r	arm_rot_r	elbow_flex_r	pro_sup_r	wrist_flex_r	wrist_dev_r	arm_flex_l	arm_add_l	arm_rot_l	elbow_flex_l	pro_sup_l	wrist_flex_l	wrist_dev_l
      1.47000000	      2.19931525	    -10.84362835	     89.83853538	      0.21944209	      0.92075498	      0.55942690	     13.31181039	      9.20967737	      5.65709934	      0.91436693	      0.01595871	      0.30056990	      0.00000000	      0.00000000	     24.84441479	     -6.52920831	      0.99916728	     58.95529313	      1.02896398	      0.69761719	      0.00000000	      0.00000000	      8.13737388	      0.06518100	      5.19750723	      0.00000000	      0.00000000	      0.00000000	      0.00000000	      0.00000000	      0.00000000	     -0.00000000	      0.00000000	     -0.00000000	      0.00000000	      0.00000000	      0.00000000	      0.00000000	      0.00000000
      1.48000000	      2.19457345	    -10.76008513	     89.83227091	      0.21978541	      0.92105458	      0.55179756	     12.43410291	      9.21909086	      5.90700627	      0.47118156	      0.00822367	      0.62641463	      0.00000000	      0.00000000	     25.93881656	     -6.60126657	      0.93561116	     58.54565636	      1.02181447	      2.00186131	      0.00000000	      0.00000000	      7.94297181	      0.08797723	      5.25588477	      0.00000000	      0.00000000	      0.00000000	      0.00000000	      0.00000000	      0.00000000	      0.00000000	      0.00000000	      0.00000000	      0.00000000	      0.00000000	      0.00000000	      0.00000000	      0.00000000
      1.49000000	      2.18410744	    -10.65454415	     89.82241815	      0.22008302	      0.92133711	      0.54419276	     11.55022853	      9.21965162	      6.17375543	      0.05334147	      0.00093098	      0.95276809	      0.00000000	      0.00000000	     26.95965840	     -6.63855464	      0.87897056	     57.94027069	      1.01124849	      3.18027001	      0.00000000	      0.00000000	      7.72189420	      0.10866608	      5.32344565	      0.00000000	      0.00000000	      0.00000000	      0.00000000	      0.00000000	      0.00000000	      0.00000000	      0.00000000	      0.00000000	      0.00000000	      0.00000000	      0.00000000	      0.00000000	      0.00000000
      1.50000000	      2.16076087	    -10.52087050	     89.81448872	      0.22033039	      0.92157247	      0.53660289	     10.64679302	      9.20105476	      6.43069596	     -0.33643718	     -0.00587194	      1.27504229	      0.00000000	     -0.00000000	     27.90802080	     -6.63248308	      0.81867625	     57.15744272	      0.99758557	      4.21090978	     -0.00000000	     -0.00000000	      7.45483168	      0.11093685	      5.37073407	     -0.00000000	      0.00000000	     -0.00000000	      0.00000000	      0.00000000	     -0.00000000	     -0.00000000	     -0.00000000	     -0.00000000	     -0.00000000	      0.00000000	      0.00000000	     -0.00000000	     -0.00000000
      1.51000000	      2.12875949	    -10.41203385	     89.80336536	      0.22048965	      0.92170004	      0.52909410	      9.82382440	      9.17278685	      6.64285050	     -0.65544233	     -0.01143963	      1.60404035	      0.00000000	      0.00000000	     28.82700899	     -6.56632690	      0.79634583	     56.18771099	      0.98066056	      5.05938426	      0.00000000	      0.00000000	      7.22110839	      0.11873507	      5.39677976	      0.00000000	      0.00000000	      0.00000000	      0.00000000	      0.00000000	      0.00000000	      0.00000000	      0.00000000	      0.00000000	      0.00000000	      0.00000000	      0.00000000	      0.00000000	      0.00000000
      1.52000000	      2.08159223	    -10.37018971	     89.79533528	      0.22061466	      0.92169637	      0.52163230	      9.10781991	      9.12498609	      6.80404194	     -0.91366731	     -0.01594650	      1.95664817	      0.00000000	      0.00000000	     29.76841623	     -6.44855916	      0.78729786	     55.04136280	      0.96065301	      5.77713513	      0.00000000	      0.00000000	      7.05559237	      0.10506843	      5.38234710	      0.00000000	      0.00000000	      0.00000000	      0.00000000	      0.00000000	      0.00000000	      0.00000000	      0.00000000	      0.00000000	      0.00000000	      0.00000000	      0.00000000	      0.00000000	      0.00000000
      1.53000000	      2.13940345	    -10.39768602	     89.78215878	      0.22076693	      0.92145336	      0.51430412	      8.59290413	      9.20488657	      6.74060149	     -0.95426308	     -0.01665503	      2.16470913	      0.00000000	      0.00000000	     30.76675605	     -6.43264252	      0.80517412	     53.77858497	      0.93861337	      6.08890778	      0.00000000	      0.00000000	      6.96381794	      0.22868283	      5.44656350	      0.00000000	      0.00000000	      0.00000000	      0.00000000	      0.00000000	      0.00000000	      0.00000000	      0.00000000	      0.00000000	      0.00000000	      0.00000000	      0.00000000	      0.00000000	      0.00000000
      1.54000000	      1.96902723	    -10.20057205	     89.77351865	      0.22064123	      0.92158332	      0.50665888	      7.61444964	      8.99995430	      7.20657936	     -1.36846221	     -0.02388417	      2.68547488	      0.00000000	      0.00000000	     31.36619028	     -6.06081797	      0.85756350	     52.23436916	      0.91166172	      6.92546741	      0.00000000	      0.00000000	      6.63398018	      0.07167041	      5.35961782	      0.00000000	      0.00000000	      0.00000000	      0.00000000	      0.00000000	      0.00000000	      0.00000000	      0.00000000	      0.00000000	      0.00000000	      0.00000000	      0.00000000	      0.00000000	      0.00000000
      1.55000000	      2.08333372	    -10.24929442	     89.75717354	      0.22073457	      0.92116091	      0.49933861	      7.14405021	      9.13858652	      7.14146788	     -1.37628063	     -0.02402063	      2.86992271	      0.00000000	      0.00000000	     32.27967066	     -6.03970320	      0.93802510	     50.68547846	      0.88462848	      7.11639440	      0.00000000	      0.00000000	      6.56470644	      0.25547792	      5.43273348	      0.00000000	      0.00000000	      0.00000000	      0.00000000	      0.00000000	      0.00000000	      0.00000000	      0.00000000	      0.00000000	      0.00000000	      0.00000000	      0.00000000	      0.00000000	      0.00000000
      1.56000000	      1.83918031	     -9.99752739	     89.75168632	      0.22042914	      0.92126142	      0.49160407	      6.12597545	      8.84346047	      7.53922726	     -1.74589350	     -0.03047159	      3.39967226	      0.00000000	      0.00000000	     32.66643677	     -5.50101368	      1.05250441	     48.80106540	      0.85173927	      7.48188694	      0.00000000	      0.00000000	      6.17988335	      0.03152023	      5.31042449	      0.00000000	      0.00000000	      0.00000000	      0.00000000	      0.00000000	      0.00000000	      0.00000000	      0.00000000	      0.00000000	      0.00000000	      0.00000000	      0.00000000	      0.00000000	      0.00000000
      1.57000000	      1.93713988	    -10.04864647	     89.73681002	      0.22041810	      0.92065876	      0.48430436	      5.64859210	      8.95873575	      7.51397733	     -1.78396356	     -0.03113604	      3.62405721	     -0.00000000	     -0.00000000	     33.49187545	     -5.37397139	      1.24745996	     47.04098239	      0.82102003	      7.58357014	     -0.00000000	     -0.00000000	      6.09293144	      0.19011628	      5.34615009	     -0.00000000	     -0.00000000	      0.00000000	      0.00000000	      0.00000000	      0.00000000	      0.00000000	     -0.00000000	      0.00000000	     -0.00000000	      0.00000000	      0.00000000	     -0.00000000	     -0.00000000
      1.58000000	      1.71008860	     -9.78085804	     89.72692634	      0.22006230	      0.92065412	      0.47643881	      4.65520645	      8.68053583	      7.81453148	     -2.06562743	     -0.03605200	      4.12183591	      0.00000000	      0.00000000	     33.69391782	     -4.82441495	      1.38965237	     44.84882038	      0.78275958	      7.49738929	      0.00000000	      0.00000000	      5.71777108	     -0.02516181	      5.28986655	      0.00000000	      0.00000000	      0.00000000	      0.00000000	      0.00000000	      0.00000000	      0.00000000	      0.00000000	      0.00000000	      0.00000000	      0.00000000	      0.00000000	      0.00000000	      0.00000000
      1.59000000	      1.67252889	     -9.77203858	     89.72100188	      0.21982452	      0.92006480	      0.46886868	      4.05325029	      8.62996407	      7.89945950	     -2.17271780	     -0.03792108	      4.46350968	     -0.00000000	      0.00000000	     34.24787175	     -4.46939280	      1.64346490	     42.74486117	      0.74603857	      7.38093432	     -0.00000000	     -0.00000000	      5.60354049	     -0.01077395	      5.23365000	     -0.00000000	      0.00000000	     -0.00000000	      0.00000000	      0.00000000	     -0.00000000	     -0.00000000	      0.00000000	     -0.00000000	      0.00000000	      0.00000000	      0.00000000	      0.00000000	      0.00000000
      1.60000000	      1.59509337	     -9.68606933	     89.70876473	      0.21955168	      0.91953237	      0.46117435	      3.35242181	      8.53379033	      8.01035787	     -2.29489915	     -0.04005355	      4.86240524	      0.00000000	     -0.00000000	     34.62281116	     -4.07112844	      1.88761117	     40.49620534	      0.70679212	      7.05841516	     -0.00000000	      0.00000000	      5.41080767	     -0.05130397	      5.21338578	      0.00000000	      0.00000000	     -0.00000000	      0.00000000	      0.00000000	     -0.00000000	     -0.00000000	      0.00000000	      0.00000000	     -0.00000000	      0.00000000	      0.00000000	     -0.00000000	     -0.00000000
